<svg height="512" viewBox="0 0 64 64" width="512" xmlns="http://www.w3.org/2000/svg"><g id="Icons"><g><g><g><path d="m38 56h-12l1.33-8h9.34z" fill="#074f77"/></g></g><g><g><path d="m37.17 51h-10.33l.49-3h9.34z" fill="#00325a"/></g></g><g><g><path d="m37 50h-10l.33-2h9.34z" fill="#00325a"/></g></g><g><g><path d="m60 14v34c0 1.1-.9 2-2 2h-52c-1.1 0-2-.9-2-2v-34c0-1.1.9-2 2-2h52c1.1 0 2 .9 2 2z" fill="#01a0c8"/></g></g><g><path d="m58 15v28c0 .55-.45 1-1 1h-50c-.55 0-1-.45-1-1v-28c0-.55.45-1 1-1h50c.55 0 1 .45 1 1z" fill="#f0f0f0"/></g><g><path d="m13 39h-4c-.552 0-1-.448-1-1 0-.552.448-1 1-1h4c.552 0 1 .448 1 1 0 .552-.448 1-1 1z" fill="#d2d2d2"/></g><g><path d="m13 35h-4c-.552 0-1-.448-1-1 0-.552.448-1 1-1h4c.552 0 1 .448 1 1 0 .552-.448 1-1 1z" fill="#d2d2d2"/></g><g><path d="m13 43h-4c-.552 0-1-.448-1-1 0-.552.448-1 1-1h4c.552 0 1 .448 1 1 0 .552-.448 1-1 1z" fill="#d2d2d2"/></g><g><path d="m55 39h-4c-.552 0-1-.448-1-1 0-.552.448-1 1-1h4c.552 0 1 .448 1 1 0 .552-.448 1-1 1z" fill="#d2d2d2"/></g><g><path d="m55 35h-4c-.552 0-1-.448-1-1 0-.552.448-1 1-1h4c.552 0 1 .448 1 1 0 .552-.448 1-1 1z" fill="#d2d2d2"/></g><g><path d="m55 43h-4c-.552 0-1-.448-1-1 0-.552.448-1 1-1h4c.552 0 1 .448 1 1 0 .552-.448 1-1 1z" fill="#d2d2d2"/></g><g><path d="m49.52 28.66-3.86 6.68c-.36.62-1.14.83-1.76.47l-1.88-1.09c-1.43 1.22-3.08 2.17-4.88 2.81v2.18c0 .71-.57 1.29-1.28 1.29h-7.72c-.71 0-1.28-.58-1.28-1.29v-2.18c-1.8-.64-3.45-1.59-4.88-2.81l-1.88 1.09c-.62.36-1.4.15-1.76-.47l-3.86-6.68c-.35-.62-.14-1.4.47-1.76l1.89-1.09c-.37-1.98-.35-3.73 0-5.62l-1.89-1.09c-.61-.36-.82-1.14-.47-1.76l1.93-3.34h31.18l1.93 3.34c.35.62.14 1.4-.47 1.76l-1.89 1.09c.37 1.98.35 3.73 0 5.62l1.89 1.09c.61.36.82 1.14.47 1.76z" fill="#d2d2d2"/></g><g><g><path d="m43 60h-22c-.552 0-1-.448-1-1v-1c0-1.105.895-2 2-2h20c1.105 0 2 .895 2 2v1c0 .552-.448 1-1 1z" fill="#01a0c8"/></g></g><g><g><path d="m53 48h4c.552 0 1-.448 1-1 0-.552-.448-1-1-1h-4c-.552 0-1 .448-1 1 0 .552.448 1 1 1z" fill="#f0f0f0"/></g></g><g><g><circle cx="49" cy="47" fill="#c8094f" r="1"/></g></g></g><g><g><path d="m49.046 25.903-1.886-1.089c.349-1.892.366-3.647 0-5.629l1.886-1.089c.615-.355.826-1.141.471-1.756l-3.857-6.68c-.355-.615-1.141-.826-1.756-.471l-1.887 1.09c-1.424-1.218-3.072-2.172-4.874-2.81v-2.183c0-.71-.576-1.286-1.286-1.286h-7.714c-.71 0-1.286.576-1.286 1.286v2.182c-1.802.638-3.45 1.593-4.874 2.81l-1.887-1.09c-.615-.355-1.401-.144-1.756.471l-3.857 6.681c-.355.615-.144 1.401.471 1.756l1.886 1.089c-.349 1.892-.366 3.647 0 5.629l-1.886 1.089c-.615.355-.826 1.141-.471 1.756l3.857 6.681c.355.615 1.141.826 1.756.471l1.887-1.09c1.424 1.218 3.072 2.172 4.874 2.81v2.182c0 .71.576 1.286 1.286 1.286h7.714c.71 0 1.286-.576 1.286-1.286v-2.182c1.802-.638 3.45-1.593 4.874-2.81l1.887 1.09c.615.355 1.401.144 1.756-.471l3.857-6.681c.355-.614.144-1.401-.471-1.756z" fill="#c8094f"/></g><g><circle cx="32" cy="22" fill="#f0f0f0" r="10.286"/></g><g><path d="m39.606 18.707-1.414-1.414c-.391-.391-1.024-.391-1.414 0l-6.848 6.848-2.707-2.707c-.391-.39-1.024-.39-1.414 0l-1.414 1.414c-.391.391-.391 1.024 0 1.414l4.828 4.828c.391.391 1.024.391 1.414 0 3.472-3.472 3.667-3.667 8.97-8.97.39-.389.39-1.022-.001-1.413z" fill="#d2d2d2"/></g></g><g><g><path d="m29.222 28.091-4.828-4.828c-.391-.391-.391-1.024 0-1.414l1.414-1.414c.391-.391 1.024-.391 1.414 0l5.536 5.536-2.121 2.121c-.391.39-1.024.39-1.415-.001z" fill="#dc9600"/></g><g><path d="m27.101 25.97 9.677-9.677c.391-.391 1.024-.391 1.414 0l1.414 1.414c.391.391.391 1.024 0 1.414l-8.97 8.97c-.391.391-1.024.391-1.414 0z" fill="#fab400"/></g></g><g><path d="m13 38h-4c-.552 0-1-.448-1-1 0-.552.448-1 1-1h4c.552 0 1 .448 1 1 0 .552-.448 1-1 1z" fill="#00143c"/></g><g><path d="m13 34h-4c-.552 0-1-.448-1-1 0-.552.448-1 1-1h4c.552 0 1 .448 1 1 0 .552-.448 1-1 1z" fill="#00143c"/></g><g><path d="m13 42h-4c-.552 0-1-.448-1-1 0-.552.448-1 1-1h4c.552 0 1 .448 1 1 0 .552-.448 1-1 1z" fill="#00143c"/></g><g><path d="m55 38h-4c-.552 0-1-.448-1-1 0-.552.448-1 1-1h4c.552 0 1 .448 1 1 0 .552-.448 1-1 1z" fill="#00143c"/></g><g><path d="m55 34h-4c-.552 0-1-.448-1-1 0-.552.448-1 1-1h4c.552 0 1 .448 1 1 0 .552-.448 1-1 1z" fill="#00143c"/></g><g><path d="m55 42h-4c-.552 0-1-.448-1-1 0-.552.448-1 1-1h4c.552 0 1 .448 1 1 0 .552-.448 1-1 1z" fill="#00143c"/></g></g></svg>